<svg id="SvgjsSvg1017" xmlns="http://www.w3.org/2000/svg" version="1.1" xmlns:xlink="http://www.w3.org/1999/xlink" xmlns:svgjs="http://svgjs.com/svgjs" width="116" height="20" viewBox="0 0 116 20"><title>logo_text</title><desc>Created with Avocode.</desc><defs id="SvgjsDefs1018"></defs><path id="SvgjsPath1019" d="M60.1151 42.26643C59.96284 42.2739 59.80272 42.2739 59.6426 42.2739L56.3444 42.2739L56.3444 45.189899999999994C56.3444 45.815 55.8196 46.32169999999999 55.1721 46.32169999999999C54.5247 46.32169999999999 53.999900000000004 45.81499999999999 53.999900000000004 45.189899999999994L53.999900000000004 34.02499999999999C53.999900000000004 33.39999999999999 54.5247 32.89319999999999 55.1721 32.89319999999999L59.6426 32.89319999999999C63.199200000000005 32.89319999999999 65.2458 34.562099999999994 65.2458 37.47809999999999C65.2458 39.55143999999999 64.28363 41.03537999999999 62.555730000000004 41.757299999999994L66.7793 48.23479999999999C67.12320000000001 48.76499999999999 66.9568 49.46399999999999 66.40780000000001 49.79599999999999C65.85860000000001 50.12799999999999 65.1346 49.96739999999999 64.79070000000002 49.43719999999999ZM90.0237 41.1612C90.0237 44.2115 88.03670000000001 46.3025 85.01650000000001 46.3025C83.3276 46.3025 82.05600000000001 45.6501 81.28110000000001 44.4609L81.28110000000001 45.2188C81.28110000000001 45.828 80.76970000000001 46.3218 80.13870000000001 46.3218C79.50780000000002 46.3218 78.99630000000002 45.828 78.99630000000002 45.2188L78.99630000000002 33.094500000000004C78.99630000000002 32.447700000000005 79.57260000000002 31.931200000000004 80.25650000000002 31.997200000000003C80.85110000000002 32.054700000000004 81.28110000000002 32.580400000000004 81.28110000000002 33.1574L81.28110000000002 37.785000000000004C82.05600000000003 36.5955 83.32760000000002 35.943400000000004 84.97680000000003 35.943400000000004C87.97720000000002 35.943400000000004 90.02370000000002 38.0536 90.02370000000002 41.16120000000001ZM92.7155 36.0201C93.308 36.0201 93.7883 36.4839 93.7883 37.0561L93.7883 40.8544C93.8083 42.696 95.04 44.000499999999995 96.86800000000001 44.000499999999995C98.65610000000001 44.000499999999995 99.90820000000001 42.696 99.90820000000001 40.8544L99.90820000000001 37.0561C99.90820000000001 36.4839 100.38900000000001 36.0201 100.98100000000001 36.0201L101.10000000000001 36.0201C101.69300000000001 36.0201 102.173 36.4839 102.173 37.0561L102.173 45.228300000000004C102.173 48.1634 100.007 50.005 96.6891 50.005C95.3994 50.005 94.2311 49.6999 93.1653 49.163000000000004C92.6799 48.918600000000005 92.49640000000001 48.337700000000005 92.7748 47.882600000000004C93.0275 47.46960000000001 93.5959 47.3119 94.0304 47.544500000000006C94.7998 47.956300000000006 95.6222 48.18240000000001 96.5898 48.18240000000001C98.5967 48.18240000000001 99.9082 47.050700000000006 99.9082 45.28580000000001L99.9082 44.00050000000001C99.1929 45.11300000000001 98.00049999999999 45.72690000000001 96.4109 45.72690000000001C93.5501 45.72690000000001 91.6425 43.732000000000006 91.6425 40.796800000000005L91.6425 37.05610000000001C91.6425 36.483900000000006 92.1228 36.020100000000006 92.71549999999999 36.020100000000006ZM157.107 37.1291L157.107 45.2395C157.107 48.1454 154.963 49.9689 151.677 49.9689C150.378 49.9689 149.202 49.6558 148.132 49.1062C147.67600000000002 48.8726 147.518 48.331 147.78 47.9025L147.821 47.836800000000004C148.071 47.4271 148.612 47.30050000000001 149.043 47.531400000000005C149.805 47.940000000000005 150.62 48.164300000000004 151.579 48.164300000000004C153.566 48.164300000000004 154.865 47.043800000000005 154.865 45.2963L154.865 44.023700000000005C154.156 45.1253 152.976 45.73310000000001 151.40200000000002 45.73310000000001C148.57000000000002 45.73310000000001 146.681 43.75790000000001 146.681 40.85170000000001C146.681 38.00280000000001 148.55 36.065200000000004 151.324 36.046400000000006C152.936 36.027300000000004 154.137 36.65410000000001 154.865 37.755700000000004L154.865 37.1291C154.865 36.5311 155.36700000000002 36.0464 155.98600000000002 36.0464C156.60500000000002 36.0464 157.10700000000003 36.531099999999995 157.10700000000003 37.1291ZM168.993 41.1058C169.015 41.6027 168.614 42.010400000000004 168.099 42.010400000000004L161.072 42.010400000000004C161.42600000000002 43.5679 162.665 44.5364 164.318 44.5364C165.18400000000003 44.5364 165.994 44.2955 166.669 43.8467C167.026 43.6094 167.549 43.647999999999996 167.846 43.9533C168.21200000000002 44.329699999999995 168.15800000000002 44.9317 167.728 45.2388C166.774 45.921099999999996 165.553 46.3031 164.14100000000002 46.3031C160.91400000000002 46.3031 158.78900000000002 44.2327 158.78900000000002 41.1937C158.78900000000002 38.1356 160.973 36.0464 164.08100000000002 36.0464C167.305 36.0464 168.852 38.021 168.99300000000002 41.1058ZM75.7504 36.0201C76.3813 36.0201 76.8928 36.5139 76.8928 37.1231L76.8928 45.2188C76.8928 45.828 76.3813 46.3218 75.7504 46.3218C75.1195 46.3218 74.608 45.828 74.608 45.2188L74.608 44.2306C73.89280000000001 45.6501 72.56150000000001 46.2832 70.8328 46.3025C68.4088 46.3025 66.95840000000001 44.806200000000004 66.95840000000001 42.370000000000005L66.95840000000001 37.12310000000001C66.95840000000001 36.51390000000001 67.4698 36.020100000000006 68.1008 36.020100000000006L68.10100000000001 36.020100000000006C68.73200000000001 36.020100000000006 69.24340000000001 36.51390000000001 69.24340000000001 37.12310000000001L69.24340000000001 41.75610000000001C69.24340000000001 43.29060000000001 70.17710000000001 44.23060000000001 71.70720000000001 44.23060000000001C73.53510000000001 44.192400000000006 74.60800000000002 42.83030000000001 74.60800000000002 41.04620000000001L74.60800000000002 37.123100000000015C74.60800000000002 36.513900000000014 75.11950000000002 36.02010000000001 75.75040000000001 36.02010000000001ZM127.759 39.598L127.759 45.2299C127.759 45.833 127.253 46.3219 126.628 46.3219C126.003 46.3219 125.497 45.833 125.497 45.2299L125.497 45.0538C124.746 45.9029 123.571 46.3219 122.093 46.3219C119.831 46.3219 118.414 44.9734 118.414 43.1879C118.414 41.3456 119.851 40.168 122.369 40.1489L125.536 40.1489L125.536 39.8452C125.536 38.5724 124.69 37.812799999999996 123.037 37.812799999999996C122.27300000000001 37.812799999999996 121.48700000000001 38.0113 120.694 38.407599999999995C120.264 38.6232 119.735 38.48669999999999 119.49000000000001 38.0832C119.23 37.656 119.39000000000001 37.1016 119.846 36.8732C120.933 36.328599999999994 121.932 36.0464 123.529 36.0464C126.225 36.0464 127.73899999999999 37.3758 127.759 39.598ZM145.3 39.598L145.3 45.2299C145.3 45.833 144.794 46.3219 144.169 46.3219C143.544 46.3219 143.038 45.833 143.038 45.2299L143.038 45.0538C142.287 45.9029 141.11200000000002 46.3219 139.63400000000001 46.3219C137.372 46.3219 135.95600000000002 44.9734 135.95600000000002 43.1879C135.95600000000002 41.3456 137.39200000000002 40.168 139.91000000000003 40.1489L143.07700000000003 40.1489L143.07700000000003 39.8452C143.07700000000003 38.5724 142.23100000000002 37.812799999999996 140.57900000000004 37.812799999999996C139.81500000000003 37.812799999999996 139.02800000000005 38.0113 138.23500000000004 38.407599999999995C137.80500000000004 38.6232 137.27600000000004 38.48669999999999 137.03100000000003 38.0832C136.77100000000004 37.656 136.93100000000004 37.1016 137.38700000000003 36.8732C138.47400000000002 36.328599999999994 139.47300000000004 36.0464 141.07000000000002 36.0464C143.76600000000002 36.0464 145.28000000000003 37.3758 145.3 39.598ZM135.471 37.1839C135.471 37.661300000000004 135.06900000000002 38.1014 134.58 38.1698C132.99200000000002 38.391400000000004 132.002 39.476800000000004 131.852 40.9468L131.852 45.2299C131.852 45.833 131.345 46.3222 130.721 46.3222C130.096 46.3222 129.589 45.833000000000006 129.589 45.2299L129.589 37.214600000000004C129.589 36.6114 130.096 36.1223 130.721 36.1223C131.345 36.1223 131.852 36.6114 131.852 37.214600000000004L131.852 38.135600000000004C132.356 37.161500000000004 133.14000000000001 36.515100000000004 134.147 36.223800000000004C134.873 36.01350000000001 135.471 36.451600000000006 135.471 37.1839ZM87.7187 41.0844C87.7187 39.185300000000005 86.3875 37.785000000000004 84.4999 37.785000000000004C82.6124 37.785000000000004 81.2811 39.166000000000004 81.2811 41.0844C81.2811 43.060300000000005 82.6124 44.4224 84.4999 44.4224C86.3875 44.4224 87.7187 43.04130000000001 87.7187 41.0844ZM154.865 40.9088C154.865 39.0853 153.625 37.812799999999996 151.85500000000002 37.812799999999996C150.06500000000003 37.812799999999996 148.82500000000002 39.1042 148.805 40.9088C148.82500000000002 42.7321 150.04500000000002 44.0237 151.85500000000002 44.0237C153.62500000000003 44.0237 154.865 42.732099999999996 154.865 40.9088ZM59.6426 40.2405C61.7885 40.2405 63.0203 39.358 63.0203 37.5357C63.0203 35.7708 61.7885 34.9266 59.6426 34.9266L56.3444 34.9266L56.3444 40.2405ZM167.013 40.4147C166.934 38.7813 165.81300000000002 37.7937 164.101 37.7937C162.449 37.7937 161.268 38.8004 161.032 40.4147ZM125.536 41.7444L122.703 41.7444C121.22800000000001 41.7444 120.539 42.1245 120.539 43.0929C120.539 44.0048 121.306 44.5935 122.565 44.5935C124.179 44.5935 125.41799999999999 43.7766 125.536 42.6752ZM143.077 41.7444L140.244 41.7444C138.769 41.7444 138.08 42.1245 138.08 43.0929C138.08 44.0048 138.847 44.5935 140.107 44.5935C141.72 44.5935 142.959 43.7766 143.077 42.6752ZM116.566 40.0679C116.566 40.0768 116.561 40.0839 116.561 40.092800000000004C116.561 40.101200000000006 116.566 40.10850000000001 116.566 40.117200000000004L116.566 43.987500000000004C116.566 44.3766 116.36800000000001 44.746100000000006 116.027 44.9534C114.668 45.780100000000004 112.873 46.3222 111.215 46.3222C107.143 46.3222 103.976 43.3778 103.976 39.579C103.976 35.7806 107.182 32.8743 111.353 32.8743C112.89699999999999 32.8743 114.442 33.3191 115.69099999999999 34.0619C116.24699999999999 34.392700000000005 116.377 35.0713 115.978 35.571400000000004C115.65299999999999 35.97860000000001 115.012 36.0979 114.567 35.816300000000005C113.61399999999999 35.21450000000001 112.47099999999999 34.86860000000001 111.353 34.86860000000001C108.53999999999999 34.86860000000001 106.336 36.93920000000001 106.336 39.57900000000001C106.336 42.238200000000006 108.559 44.308600000000006 111.373 44.308600000000006C112.39500000000001 44.308600000000006 113.55600000000001 43.96660000000001 114.54 43.3969L114.54 41.0503L113.093 41.0503C112.533 41.0503 112.07600000000001 40.6081 112.07600000000001 40.0679C112.07600000000001 39.5279 112.533 39.0858 113.093 39.0858L115.549 39.0858C116.108 39.0858 116.566 39.5279 116.566 40.0679Z " fill="#000000" fill-opacity="1" transform="matrix(1,0,0,1,-53,-31)"></path></svg>
